<svg aria-hidden="true" style="position:absolute;width:0;height:0" xmlns="http://www.w3.org/2000/svg" overflow="hidden"><defs><symbol id="icon-circle-with-cross" viewBox="0 0 20 20"><path d="M10 1.6a8.4 8.4 0 100 16.8 8.4 8.4 0 000-16.8zm4.789 11.461L13.06 14.79 10 11.729l-3.061 3.06L5.21 13.06 8.272 10 5.211 6.939 6.94 5.211 10 8.271l3.061-3.061 1.729 1.729L11.728 10l3.061 3.061z"/></symbol><symbol id="icon-edit" viewBox="0 0 20 20"><path d="M17.561 2.439c-1.442-1.443-2.525-1.227-2.525-1.227L2.21 14.037 1.2 18.799l4.763-1.01L18.789 4.966c-.001 0 .216-1.083-1.228-2.527zM5.68 17.217l-1.624.35c-.156-.293-.345-.586-.69-.932s-.639-.533-.932-.691l.35-1.623.47-.469s.883.018 1.881 1.016c.997.996 1.016 1.881 1.016 1.881l-.471.468z"/></symbol><symbol id="icon-plus" viewBox="0 0 20 20"><path d="M16 10c0 .553-.048 1-.601 1H11v4.399c0 .552-.447.601-1 .601s-1-.049-1-.601V11H4.601C4.049 11 4 10.553 4 10s.049-1 .601-1H9V4.601C9 4.048 9.447 4 10 4s1 .048 1 .601V9h4.399c.553 0 .601.447.601 1z"/></symbol><symbol id="add-circle-sharp" viewBox="0 0 20 20"><path d="M256 48C141.31 48 48 141.31 48 256s93.31 208 208 208 208-93.31 208-208S370.69 48 256 48zm96 224h-80v80h-32v-80h-80v-32h80v-80h32v80h80z"/></symbol></defs></svg>